<svg width="980" height="551" xmlns="http://www.w3.org/2000/svg" xmlns:xlink="http://www.w3.org/1999/xlink">
<path fill="#ff595e" d="M 787.84 57.75 Q 787.84 57.75 787.84 57.75 787.85 57.75 787.85 57.75 787.86 57.75 787.85 57.75 Z" data-drauu_index="6"></path><path fill="#ff595e" d="M 500.74 348.54 Q 500.74 348.54 500.74 348.54 500.74 348.55 500.73 348.55 500.73 348.55 500.74 348.55 Z" data-drauu_index="0"></path><path fill="#ffca3a" d="M 739.13 60.37 Q 739.13 60.37 738.86 60.15 738.60 59.93 738.58 59.90 738.57 59.87 738.57 59.84 738.56 59.81 738.57 59.78 738.57 59.75 738.58 59.72 738.59 59.69 738.61 59.66 738.62 59.63 738.65 59.61 738.67 59.59 738.70 59.58 738.72 59.56 738.75 59.55 738.78 59.54 738.82 59.54 738.85 59.54 738.88 59.55 738.91 59.56 738.94 59.57 738.97 59.58 738.99 59.60 739.01 59.62 739.03 59.65 739.05 59.67 738.98 59.92 738.91 60.17 738.99 61.36 739.07 62.55 739.06 65.82 739.05 69.09 739.05 74.84 739.04 80.59 739.04 88.18 739.03 95.78 739.03 103.67 739.03 111.56 739.03 119.18 739.03 126.80 739.03 133.78 739.03 140.77 739.03 146.16 739.03 151.55 739.03 155.24 739.03 158.93 738.78 162.67 738.54 166.42 738.53 166.42 738.53 166.42 738.52 166.42 738.52 166.42 738.27 162.67 738.03 158.93 738.03 155.24 738.03 151.55 738.03 146.16 738.03 140.77 738.03 133.78 738.03 126.80 738.03 119.18 738.03 111.56 738.03 103.67 738.03 95.78 738.04 88.18 738.04 80.59 738.05 74.84 738.05 69.09 738.07 65.81 738.09 62.52 738.34 61.23 738.60 59.93 738.58 59.90 738.57 59.87 738.57 59.84 738.56 59.81 738.57 59.78 738.57 59.75 738.58 59.72 738.59 59.69 738.61 59.66 738.62 59.63 738.65 59.61 738.67 59.59 738.70 59.58 738.72 59.56 738.75 59.55 738.78 59.54 738.82 59.54 738.85 59.54 738.88 59.55 738.91 59.56 738.94 59.57 738.97 59.58 738.99 59.60 739.01 59.62 739.03 59.65 739.05 59.67 739.10 60.02 739.15 60.36 739.14 60.37 Z" data-drauu_index="13"></path><path fill="#ffca3a" d="M 762.49 81.11 Q 762.49 81.11 762.63 81.94 762.77 82.78 762.87 85.42 762.98 88.06 762.98 92.30 762.98 96.53 762.98 101.63 762.98 106.73 762.98 112.06 762.98 117.39 762.98 122.02 762.98 126.65 762.98 130.14 762.98 133.62 762.98 136.13 762.98 138.64 762.98 140.34 762.98 142.04 762.98 143.15 762.98 144.26 762.73 146.25 762.49 148.23 762.49 148.23 762.48 148.23 762.48 148.23 762.47 148.23 762.23 146.25 761.98 144.26 761.98 143.15 761.98 142.04 761.98 140.34 761.98 138.64 761.98 136.13 761.98 133.62 761.98 130.14 761.98 126.65 761.98 122.02 761.98 117.39 761.98 112.06 761.98 106.73 761.98 101.63 761.98 96.53 761.98 92.30 761.98 88.06 762.09 85.42 762.19 82.78 762.33 81.94 762.47 81.11 762.48 81.11 Z" data-drauu_index="14"></path><path fill="#ffca3a" d="M 730.69 115.25 Q 730.69 115.25 731.85 115.05 733.02 114.86 735.78 114.81 738.54 114.76 742.42 114.76 746.30 114.76 750.72 114.76 755.13 114.76 759.25 114.76 763.37 114.76 766.63 114.76 769.88 114.76 772.34 115.00 774.80 115.25 774.80 115.25 774.80 115.26 774.80 115.26 774.80 115.27 772.34 115.51 769.88 115.76 766.63 115.76 763.37 115.76 759.25 115.76 755.13 115.76 750.72 115.76 746.30 115.76 742.42 115.76 738.54 115.76 735.78 115.71 733.02 115.65 731.85 115.46 730.69 115.27 730.69 115.26 Z" data-drauu_index="15"></path><path fill="#ffca3a" d="M 780.92 126.24 Q 780.92 126.24 781.11 127.11 781.29 127.97 781.35 129.22 781.41 130.47 781.41 131.91 781.41 133.34 781.41 134.74 781.41 136.14 781.17 138.11 780.92 140.07 780.92 140.07 780.91 140.07 780.91 140.07 780.90 140.07 780.66 138.11 780.42 136.14 780.42 134.74 780.41 133.34 780.41 131.91 780.41 130.47 780.47 129.22 780.53 127.97 780.72 127.11 780.90 126.24 780.91 126.24 Z" data-drauu_index="16"></path><path fill="#ffca3a" d="M 781.73 164.00 Q 781.73 164.00 781.48 164.09 781.23 164.18 781.12 164.20 781.01 164.22 780.98 164.21 780.96 164.21 780.93 164.20 780.91 164.19 780.88 164.18 780.86 164.16 780.84 164.14 780.82 164.12 780.81 164.10 780.80 164.07 780.79 164.05 780.79 164.02 780.79 163.99 780.79 163.96 780.79 163.94 780.80 163.91 780.81 163.89 780.82 163.86 780.84 163.84 780.86 163.82 780.88 163.81 780.91 163.79 780.93 163.78 780.96 163.77 780.98 163.77 781.01 163.77 782.01 163.66 783.01 163.55 785.36 163.52 787.72 163.49 791.29 163.49 794.87 163.49 799.07 163.49 803.27 163.49 807.67 163.49 812.07 163.49 815.68 163.49 819.29 163.49 821.84 163.49 824.40 163.49 826.83 163.68 829.26 163.86 829.26 163.87 829.26 163.87 829.26 163.88 829.26 163.88 826.83 164.19 824.40 164.49 821.84 164.49 819.29 164.49 815.68 164.49 812.07 164.49 807.67 164.49 803.27 164.49 799.07 164.49 794.87 164.49 791.29 164.49 787.72 164.49 785.36 164.46 783.01 164.43 782.01 164.33 781.01 164.22 780.98 164.21 780.96 164.21 780.93 164.20 780.91 164.19 780.88 164.18 780.86 164.16 780.84 164.14 780.82 164.12 780.81 164.10 780.80 164.07 780.79 164.05 780.79 164.02 780.79 163.99 780.79 163.96 780.79 163.94 780.80 163.91 780.81 163.89 780.82 163.86 780.84 163.84 780.86 163.82 780.88 163.81 780.91 163.79 780.93 163.78 780.96 163.77 780.98 163.77 781.01 163.77 781.12 163.78 781.23 163.80 781.48 163.89 781.73 163.98 781.73 163.99 Z" data-drauu_index="17"></path><path fill="#ffca3a" d="M 806.80 163.78 Q 806.80 163.78 806.91 164.37 807.02 164.97 807.15 166.60 807.29 168.23 807.29 170.89 807.29 173.55 807.29 177.04 807.29 180.52 807.29 184.51 807.29 188.50 807.29 192.28 807.29 196.05 807.29 199.18 807.29 202.31 807.29 204.75 807.29 207.19 807.04 209.85 806.80 212.52 806.79 212.52 806.79 212.52 806.78 212.52 806.78 212.52 806.53 209.85 806.29 207.19 806.29 204.75 806.29 202.31 806.29 199.18 806.29 196.05 806.29 192.28 806.29 188.50 806.29 184.51 806.29 180.52 806.29 177.04 806.29 173.55 806.29 170.89 806.29 168.23 806.43 166.60 806.56 164.97 806.67 164.37 806.78 163.78 806.79 163.78 Z" data-drauu_index="18"></path><path fill="#ffca3a" d="M 816.63 175.87 Q 816.63 175.87 816.71 176.22 816.79 176.58 817.19 177.96 817.59 179.33 818.09 181.93 818.60 184.52 819.19 187.99 819.79 191.46 820.22 194.87 820.65 198.27 820.87 201.00 821.10 203.73 821.24 205.78 821.38 207.83 821.44 209.13 821.50 210.42 821.53 211.17 821.55 211.91 821.56 212.27 821.57 212.64 821.57 212.70 821.56 212.76 821.54 212.81 821.52 212.87 821.49 212.92 821.46 212.97 821.42 213.01 821.37 213.05 821.32 213.08 821.27 213.11 821.21 213.13 821.15 213.15 821.09 213.15 821.03 213.15 820.97 213.14 820.91 213.13 820.86 213.10 820.80 213.07 820.76 213.04 820.71 213.00 820.68 212.95 820.64 212.90 820.62 212.84 820.59 212.79 820.58 212.73 820.57 212.67 820.83 211.51 821.08 210.35 821.55 208.96 822.03 207.58 822.73 206.16 823.44 204.73 824.40 203.39 825.36 202.05 826.54 200.95 827.72 199.86 829.01 199.08 830.30 198.31 831.69 197.84 833.07 197.38 834.50 197.28 835.92 197.19 837.22 197.84 838.52 198.50 839.49 199.98 840.47 201.46 841.10 203.27 841.74 205.09 842.10 206.78 842.46 208.47 842.62 209.67 842.78 210.87 842.85 211.59 842.91 212.30 842.96 212.68 843.00 213.05 843.05 212.60 843.09 212.15 843.79 210.90 844.48 209.66 845.46 207.71 846.44 205.76 847.40 203.56 848.36 201.37 849.08 199.29 849.80 197.22 850.24 195.52 850.68 193.83 850.91 192.61 851.13 191.39 851.16 190.62 851.19 189.86 850.98 189.53 850.77 189.21 850.21 189.07 849.66 188.93 848.84 189.07 848.02 189.21 847.05 190.01 846.08 190.81 845.13 192.24 844.18 193.67 843.49 195.36 842.81 197.06 842.40 198.77 842.00 200.47 841.97 201.98 841.95 203.49 842.62 204.64 843.29 205.79 844.91 206.66 846.53 207.53 849.05 208.21 851.57 208.90 854.61 209.34 857.66 209.79 860.44 209.98 863.22 210.17 865.25 209.95 867.27 209.73 869.54 208.60 871.82 207.46 871.82 207.47 871.82 207.47 871.83 207.48 871.83 207.48 869.61 209.10 867.39 210.72 865.27 210.94 863.16 211.16 860.34 210.97 857.52 210.78 854.41 210.32 851.30 209.86 848.68 209.13 846.05 208.40 844.26 207.37 842.47 206.33 841.72 204.94 840.97 203.55 841.00 201.89 841.02 200.24 841.45 198.46 841.88 196.69 842.61 194.90 843.35 193.11 844.40 191.57 845.45 190.03 846.63 189.14 847.81 188.25 848.87 188.11 849.92 187.97 850.71 188.28 851.50 188.59 851.83 189.20 852.17 189.81 852.14 190.69 852.12 191.57 851.88 192.82 851.65 194.08 851.20 195.81 850.75 197.55 850.01 199.66 849.28 201.77 848.30 203.99 847.33 206.21 846.34 208.18 845.36 210.15 844.64 211.43 843.92 212.70 843.26 213.29 842.61 213.87 842.31 213.52 842.01 213.17 841.97 212.79 841.92 212.40 841.85 211.70 841.79 211.00 841.64 209.84 841.49 208.68 841.14 207.05 840.80 205.42 840.21 203.70 839.62 201.99 838.81 200.66 838.00 199.33 836.96 198.75 835.91 198.17 834.64 198.25 833.37 198.33 832.09 198.75 830.81 199.17 829.60 199.88 828.40 200.59 827.28 201.61 826.17 202.64 825.25 203.91 824.33 205.18 823.65 206.54 822.97 207.91 822.51 209.24 822.05 210.57 821.81 211.60 821.57 212.64 821.57 212.70 821.56 212.76 821.54 212.81 821.52 212.87 821.49 212.92 821.46 212.97 821.42 213.01 821.37 213.05 821.32 213.08 821.27 213.11 821.21 213.13 821.15 213.15 821.09 213.15 821.03 213.15 820.97 213.14 820.91 213.13 820.86 213.10 820.80 213.07 820.76 213.04 820.71 213.00 820.68 212.95 820.64 212.90 820.62 212.84 820.59 212.79 820.58 212.73 820.57 212.67 820.56 212.31 820.55 211.95 820.53 211.21 820.50 210.47 820.44 209.18 820.39 207.90 820.25 205.86 820.11 203.81 819.88 201.10 819.65 198.39 819.23 195.01 818.81 191.63 818.21 188.17 817.62 184.70 817.13 182.10 816.65 179.51 816.53 178.04 816.41 176.57 816.51 176.22 816.61 175.87 816.62 175.87 Z" data-drauu_index="19"></path><path fill="#ffca3a" d="M 863.88 197.23 Q 863.88 197.23 864.09 197.83 864.30 198.42 864.38 199.05 864.46 199.67 864.50 200.29 864.53 200.92 864.54 201.56 864.55 202.19 864.55 202.90 864.55 203.61 864.55 204.27 864.55 204.92 864.55 205.36 864.55 205.80 864.55 205.99 864.55 206.18 864.54 206.24 864.54 206.30 864.52 206.36 864.49 206.42 864.46 206.46 864.43 206.51 864.38 206.55 864.34 206.59 864.28 206.62 864.23 206.65 864.17 206.66 864.11 206.68 864.05 206.68 863.99 206.68 863.93 206.67 863.87 206.65 863.82 206.62 863.77 206.59 863.72 206.55 863.68 206.51 863.64 206.47 863.61 206.42 863.59 206.36 863.57 206.30 863.56 206.24 863.55 206.18 863.40 205.45 863.26 204.72 863.08 203.51 862.90 202.31 862.76 200.50 862.62 198.68 862.57 196.73 862.51 194.77 862.68 193.07 862.86 191.38 863.58 189.87 864.30 188.36 865.71 187.29 867.12 186.23 869.16 185.71 871.19 185.18 873.50 184.96 875.81 184.75 878.04 184.66 880.26 184.57 882.23 184.53 884.19 184.50 887.10 184.87 890.01 185.25 890.01 185.25 890.01 185.26 890.01 185.26 890.01 185.26 887.11 185.38 884.21 185.50 882.25 185.53 880.30 185.57 878.10 185.66 875.90 185.75 873.67 185.95 871.43 186.15 869.56 186.60 867.69 187.05 866.43 187.94 865.17 188.84 864.51 190.17 863.84 191.50 863.68 193.12 863.51 194.74 863.56 196.67 863.62 198.61 863.75 200.38 863.88 202.16 864.06 203.35 864.24 204.54 864.40 205.36 864.55 206.18 864.54 206.24 864.54 206.30 864.52 206.36 864.49 206.42 864.46 206.46 864.43 206.51 864.38 206.55 864.34 206.59 864.28 206.62 864.23 206.65 864.17 206.66 864.11 206.68 864.05 206.68 863.99 206.68 863.93 206.67 863.87 206.65 863.82 206.62 863.77 206.59 863.72 206.55 863.68 206.51 863.64 206.47 863.61 206.42 863.59 206.36 863.57 206.30 863.56 206.24 863.55 206.18 863.55 205.99 863.55 205.81 863.55 205.36 863.55 204.92 863.55 204.27 863.55 203.61 863.55 202.91 863.55 202.20 863.54 201.57 863.54 200.93 863.56 200.31 863.58 199.70 863.61 199.09 863.65 198.48 863.76 197.86 863.86 197.23 863.87 197.23 Z" data-drauu_index="20"></path><path fill="#ffca3a" d="M 883.85 197.10 Q 883.85 197.10 884.86 196.89 885.88 196.69 886.99 196.51 888.10 196.33 889.17 195.89 890.23 195.46 891.12 194.74 892.01 194.02 892.62 193.10 893.24 192.18 893.54 191.15 893.85 190.11 893.95 189.12 894.06 188.12 893.84 187.41 893.63 186.70 892.99 186.28 892.36 185.87 891.46 185.66 890.56 185.45 889.50 185.50 888.43 185.55 887.31 185.98 886.18 186.41 885.14 187.17 884.09 187.92 883.25 188.83 882.40 189.74 881.84 190.69 881.27 191.64 880.99 192.58 880.70 193.53 880.74 194.51 880.77 195.50 881.19 196.49 881.61 197.48 882.33 198.41 883.06 199.35 883.92 200.19 884.78 201.03 885.64 201.70 886.50 202.36 887.45 202.83 888.41 203.30 889.58 203.59 890.76 203.88 892.10 204.03 893.44 204.18 896.30 204.48 899.16 204.79 899.16 204.80 899.16 204.80 899.16 204.81 899.16 204.81 896.25 204.99 893.33 205.17 891.93 205.01 890.52 204.85 889.24 204.52 887.97 204.20 886.92 203.67 885.88 203.15 884.98 202.45 884.08 201.75 883.18 200.85 882.27 199.95 881.48 198.91 880.68 197.86 880.23 196.70 879.78 195.54 879.76 194.39 879.75 193.25 880.08 192.19 880.41 191.13 881.04 190.10 881.67 189.06 882.59 188.09 883.51 187.11 884.66 186.29 885.82 185.48 887.10 185.01 888.38 184.55 889.59 184.51 890.80 184.48 891.86 184.76 892.93 185.05 893.72 185.68 894.51 186.31 894.78 187.25 895.05 188.20 894.93 189.30 894.80 190.40 894.44 191.57 894.07 192.73 893.36 193.76 892.64 194.79 891.63 195.58 890.61 196.38 889.42 196.85 888.24 197.32 887.06 197.42 885.88 197.52 884.86 197.32 883.85 197.12 883.85 197.11 Z" data-drauu_index="21"></path><path fill="#ffca3a" d="M 740.82 272.53 Q 740.82 272.53 740.81 272.53 740.81 272.53 740.80 272.54 740.80 272.54 740.81 272.53 Z" data-drauu_index="22"></path>
</svg>