<svg width="980" height="551" xmlns="http://www.w3.org/2000/svg" xmlns:xlink="http://www.w3.org/1999/xlink">
<path fill="#ffca3a" d="M 365.42 385.08 Q 365.42 385.08 366.36 383.81 367.31 382.54 371.21 379.37 375.11 376.21 381.86 371.46 388.60 366.72 397.67 361.51 406.73 356.30 417.00 351.46 427.28 346.61 436.41 343.03 445.54 339.44 452.59 337.03 459.65 334.63 464.50 333.09 469.34 331.56 472.31 330.66 475.27 329.77 476.80 329.28 478.32 328.79 478.53 328.61 478.75 328.44 478.81 328.43 478.87 328.42 478.93 328.42 478.99 328.42 479.04 328.44 479.10 328.46 479.15 328.49 479.21 328.52 479.25 328.56 479.29 328.60 479.32 328.65 479.35 328.70 479.37 328.76 479.39 328.82 479.40 328.88 479.40 328.94 479.39 329.00 479.38 329.06 479.36 329.11 479.33 329.17 479.29 329.22 479.26 329.26 479.21 329.30 479.16 329.34 479.11 329.37 479.05 329.39 477.68 330.17 476.31 330.94 473.62 332.97 470.93 335.00 467.77 337.66 464.62 340.32 461.69 342.88 458.76 345.45 456.49 347.49 454.22 349.54 452.65 351.08 451.08 352.63 450.14 353.89 449.20 355.15 448.62 356.46 448.04 357.76 447.63 359.16 447.23 360.55 446.90 361.94 446.57 363.33 446.31 364.57 446.05 365.80 445.46 367.95 444.87 370.09 444.87 370.09 444.86 370.09 444.86 370.09 444.85 370.09 444.96 367.85 445.08 365.60 445.34 364.35 445.59 363.10 445.93 361.69 446.27 360.27 446.70 358.81 447.13 357.35 447.76 355.95 448.39 354.56 449.39 353.24 450.38 351.92 451.96 350.35 453.55 348.79 455.83 346.74 458.10 344.69 461.04 342.12 463.97 339.55 467.15 336.88 470.33 334.21 473.07 332.14 475.82 330.07 477.28 329.25 478.75 328.44 478.81 328.43 478.87 328.42 478.93 328.42 478.99 328.42 479.04 328.44 479.10 328.46 479.15 328.49 479.21 328.52 479.25 328.56 479.29 328.60 479.32 328.65 479.35 328.70 479.37 328.76 479.39 328.82 479.40 328.88 479.40 328.94 479.39 329.00 479.38 329.06 479.36 329.11 479.33 329.17 479.29 329.22 479.26 329.26 479.21 329.30 479.16 329.34 479.11 329.36 479.05 329.39 478.85 329.56 478.65 329.73 477.11 330.23 475.56 330.72 472.60 331.62 469.64 332.52 464.81 334.04 459.97 335.57 452.94 337.97 445.90 340.37 436.80 343.95 427.70 347.52 417.47 352.34 407.23 357.17 398.20 362.35 389.18 367.54 382.46 372.26 375.74 376.99 371.85 380.08 367.96 383.18 366.69 384.13 365.43 385.09 365.43 385.08 Z" data-drauu_index="0"></path>
</svg>